<svg xmlns="http://www.w3.org/2000/svg" xmlns:xlink="http://www.w3.org/1999/xlink" viewBox="0 0 210 205.5"> <g stroke="#379b37" id="8537a6df-319b-471d-bb65-d384c2a9c44c" data-name="Layer 4"> <path d="M1,179.031C1,192.171,1.465,205,18.969,205H190.031a17.877,17.877,0,0,0,11.086-3.737,18.965,18.965,0,0,0,8.383-15.732V17.766A17.286,17.286,0,0,0,192.234.5H17.766A17.286,17.286,0,0,0,.5,17.766Zm26.5-6.5V46.5h155V172.531a4.975,4.975,0,0,1-4.969,4.969H32.469A4.975,4.975,0,0,1,27.5,172.531Z" stroke="#777" stroke-miterlimit="10" opacity="0.75" fill="#3ec73f"/> <path d="M72.166,149.709a11.833,11.833,0,1,1-11.833-11.833A11.832,11.832,0,0,1,72.166,149.709Z" fill="#e8b501" stroke="#f48003" stroke-miterlimit="20" opacity="0.3"/> <path d="M117.166,149.834A11.833,11.833,0,1,1,105.333,138,11.832,11.832,0,0,1,117.166,149.834Z" fill="#e8b501" stroke="#f48003" stroke-miterlimit="20" opacity="0.3"/> <path d="M162.166,149.959a11.833,11.833,0,1,1-11.833-11.833A11.832,11.832,0,0,1,162.166,149.959Z" fill="#e8b501" stroke="#f48003" stroke-miterlimit="20" opacity="0.3"/> <rect x="48.5" y="65.75" width="113" height="17" rx="8.5" ry="8.5" fill="#5e9beb" stroke="#578fd8" stroke-miterlimit="20"/> <rect x="48.5" y="105.5" width="113" height="17" rx="8.5" ry="8.5" fill="#5e9beb" stroke="#578fd8" stroke-miterlimit="20"/> <path d="M172.166,22.334A11.833,11.833,0,1,1,160.333,10.5,11.832,11.832,0,0,1,172.166,22.334Z" fill="#777"/> <path d="M59.166,22.334A11.833,11.833,0,1,1,47.333,10.5,11.832,11.832,0,0,1,59.166,22.334Z" fill="#777"/> <rect x="45.5" y="19.334" width="118" height="6" rx="3" ry="3" fill="#fff"/> </g></svg>