<svg xmlns="http://www.w3.org/2000/svg" xmlns:xlink="http://www.w3.org/1999/xlink" viewBox="0 0 210 205.5">
  <defs>
    <linearGradient id="528198da-9dc3-408e-89ce-8b1629c05324" x1="105" y1="0.5" x2="105" y2="205" gradientUnits="userSpaceOnUse">
      <stop offset="0" stop-color="#999"/>
      <stop offset="0.515" stop-color="#979797"/>
      <stop offset="0.7" stop-color="#909090"/>
      <stop offset="0.832" stop-color="#858585"/>
      <stop offset="0.939" stop-color="#747474"/>
      <stop offset="1" stop-color="#666"/>
    </linearGradient>

        <linearGradient id="selected-gradient" x1="105" y1="0.5" x2="105" y2="205" gradientUnits="userSpaceOnUse">
      <stop offset="0" stop-color="#3cb53c"/>
      <stop offset="0.59" stop-color="#3cb33c"/>
      <stop offset="0.802" stop-color="#3aac3a"/>
      <stop offset="0.952" stop-color="#38a138"/>
      <stop offset="1" stop-color="#379b37"/>
    </linearGradient>
  </defs>
  <g id="455713db-efaf-4c00-b58e-4dc1aaab669f" data-name="Layer 1">
    <rect x="48.718" y="142.5" width="70" height="17" rx="8.5" ry="8.5" fill="#5e9beb" stroke="#578fd8" stroke-miterlimit="20"/>
  </g>
  <g id="efeefdaa-9097-4e70-beb2-353f49f3f2b4" data-name="Layer 4">
    <path d="M1,179.031C1,192.171,1.465,205,18.969,205H190.031a17.877,17.877,0,0,0,11.086-3.737,18.965,18.965,0,0,0,8.383-15.732V17.766A17.286,17.286,0,0,0,192.234.5H17.766A17.286,17.286,0,0,0,.5,17.766Zm26.5-6.5V46.5h155V172.531a4.975,4.975,0,0,1-4.969,4.969H32.469A4.975,4.975,0,0,1,27.5,172.531Z" stroke="#777" stroke-miterlimit="10" opacity="0.75" fill="url(#528198da-9dc3-408e-89ce-8b1629c05324)"/>
    <path d="M162.166,149.959a11.833,11.833,0,1,1-11.833-11.833A11.832,11.832,0,0,1,162.166,149.959Z" fill="#e8b501" stroke="#f48003" stroke-miterlimit="20" opacity="0.3"/>
    <rect x="90.167" y="65.745" width="70" height="17.01" rx="8.5" ry="8.5" fill="#5e9beb" stroke="#578fd8" stroke-miterlimit="20"/>
    <rect x="48.5" y="104.5" width="113" height="17" rx="8.5" ry="8.5" fill="#5e9beb" stroke="#578fd8" stroke-miterlimit="20"/>
    <path d="M172.166,22.334A11.833,11.833,0,1,1,160.333,10.5,11.832,11.832,0,0,1,172.166,22.334Z" fill="#777"/>
    <path d="M59.166,22.334A11.833,11.833,0,1,1,47.333,10.5,11.832,11.832,0,0,1,59.166,22.334Z" fill="#777"/>
    <rect x="45.5" y="19.334" width="118" height="6" rx="3" ry="3" fill="#fff"/>
    <path d="M72.166,73.379A11.833,11.833,0,1,1,60.333,61.546,11.832,11.832,0,0,1,72.166,73.379Z" fill="#e8b501" stroke="#f48003" stroke-miterlimit="20" opacity="0.3"/>
  </g>
</svg>
