<?xml version="1.0" encoding="utf-8"?>
<!-- Generator: Adobe Illustrator 22.1.0, SVG Export Plug-In . SVG Version: 6.00 Build 0)  -->
<svg version="1.1" id="Layer_1" xmlns="http://www.w3.org/2000/svg" xmlns:xlink="http://www.w3.org/1999/xlink" x="0px" y="0px"
	 viewBox="0 0 399.5 57" style="enable-background:new 0 0 399.5 57;" xml:space="preserve">
<style type="text/css">
	.st0{opacity:0.7;fill:#FFFFFF;}
	.st1{fill:#FFFFFF;}
</style>
<g>
	<path class="st0" d="M62.7,24.4c0,0.8,0.1,1.6,0.4,2.2c0.7,2,3,2.4,4.9,2.4c1.7,0,4.3-0.6,4.3-3c0-1.7-1.4-2.2-7.2-3.8
		c-5.3-1.5-11.3-2.9-11.3-9.7c0-7.7,6.6-11,13.5-11c7.2,0,13.6,2.8,13.9,10.9h-9.7c0.2-1.3-0.4-2.1-1.2-2.7c-0.8-0.6-2-0.8-3-0.8
		c-1.4,0-3.7,0.4-3.7,2.2c0.2,2.4,4.9,2.9,9.7,4.2c4.7,1.3,9.4,3.5,9.4,9.6c0,8.7-8,11.5-15.4,11.5c-3.8,0-14.6-1.4-14.7-12H62.7z"
		/>
	<path class="st0" d="M114.6,22.7c0,9.2-5,13.7-15.2,13.7c-10.2,0-15.2-4.4-15.2-13.7V2.2h10.3v18.2c0,3.4,0,7.7,5,7.7
		c4.9,0,4.9-4.2,4.9-7.7V2.2h10.3V22.7z"/>
	<path class="st0" d="M118.1,2.2h19.6c5.8,0,10.9,3.2,10.9,9.5c0,3.5-1.6,7.1-5,8.4c2.8,1.1,4.5,4.2,4.9,8.3
		c0.1,1.6,0.2,5.6,1.1,7.1h-10.3c-0.5-1.7-0.7-3.4-0.8-5.1c-0.3-3.2-0.6-6.5-4.6-6.5h-5.5v11.6h-10.3V2.2z M128.4,16.8h5.4
		c1.9,0,4.5-0.3,4.5-3.3c0-2.1-1.2-3.3-5.1-3.3h-4.8V16.8z"/>
	<path class="st0" d="M151.9,2.2h27.6v8.5h-17.3v4.2h15.7v7.9h-15.7V27H180v8.5h-28.1V2.2z"/>
	<path class="st1" d="M184.8,2.2H202c9.1,0,12.2,6.6,12.2,11.4c0,8.1-5.4,11.9-13.1,11.9H195v10.1h-10.3V2.2z M195,17.5h4
		c2.7,0,5.5-0.2,5.5-3.5c0-3-2.3-3.2-4.9-3.2H195V17.5z"/>
	<path class="st1" d="M223.4,2.2h10l12.1,33.3H235l-1.4-4.8H223l-1.5,4.8h-10.3L223.4,2.2z M231.5,23.7l-3-10.3h-0.1l-3.2,10.3
		H231.5z"/>
	<path class="st1" d="M250.5,23.3L238.7,2.2h11.3l5.6,12.3l5.8-12.3h11.3l-12,21.1v12.3h-10.3V23.3z"/>
	<path class="st1" d="M274.7,2.2h19.6c5.8,0,10.9,3.2,10.9,9.5c0,3.5-1.6,7.1-5,8.4c2.8,1.1,4.5,4.2,4.9,8.3
		c0.1,1.6,0.2,5.6,1.1,7.1h-10.3c-0.5-1.7-0.7-3.4-0.8-5.1c-0.3-3.2-0.6-6.5-4.6-6.5H285v11.6h-10.3V2.2z M285,16.8h5.4
		c1.9,0,4.5-0.3,4.5-3.3c0-2.1-1.2-3.3-5.1-3.3H285V16.8z"/>
	<path class="st1" d="M324.4,1.4c10.1,0,16.9,7.3,16.9,17.5c0,10.2-6.8,17.5-16.9,17.5c-10.1,0-16.9-7.3-16.9-17.5
		C307.5,8.7,314.3,1.4,324.4,1.4z M324.4,28c2.6,0,6.6-1.7,6.6-9.2c0-7.4-4-9.2-6.6-9.2c-2.6,0-6.6,1.7-6.6,9.2
		C317.8,26.3,321.8,28,324.4,28z"/>
	<path class="st1" d="M344.1,2.2h10.3V27h14.8v8.5h-25V2.2z"/>
	<path class="st1" d="M372.7,2.2h10.3V27h14.8v8.5h-25V2.2z"/>
	<g>
		<polygon class="st1" points="17.3,35.6 35.1,35.6 35.1,14.4 		"/>
		<polygon class="st0" points="14,27.6 35.1,2.7 35.1,2.2 1.8,2.2 1.8,18.8 		"/>
		<polygon class="st1" points="1.8,28.2 1.8,35.6 12.1,35.6 		"/>
	</g>
	<g>
		<path class="st1" d="M188.2,46.2h2.1l3.4,9.2h-2.1l-0.7-2h-3.4l-0.7,2h-2L188.2,46.2z M188,51.8h2.4l-1.2-3.4h0L188,51.8z"/>
		<path class="st1" d="M199.3,46.2h4.1c2.3,0,3.2,1.5,3.2,2.9c0,1.5-0.9,2.9-3.2,2.9h-2.1v3.3h-2V46.2z M201.4,50.5h1.6
			c0.9,0,1.8-0.2,1.8-1.4c0-1.2-0.8-1.4-1.8-1.4h-1.6V50.5z"/>
		<path class="st1" d="M210.1,46.2h2.1l3.4,9.2h-2.1l-0.7-2h-3.4l-0.7,2h-2L210.1,46.2z M209.9,51.8h2.4l-1.2-3.4h0L209.9,51.8z"/>
		<path class="st1" d="M218.5,51.8l-3.4-5.6h2.3l2.1,3.6l2.1-3.6h2.2l-3.4,5.7v3.5h-2V51.8z"/>
		<path class="st1" d="M230.8,49.3c-0.1-0.9-1-1.6-2-1.6c-1.8,0-2.5,1.5-2.5,3.1c0,1.5,0.7,3.1,2.5,3.1c1.2,0,1.9-0.8,2.1-2.1h2
			c-0.2,2.3-1.8,3.8-4,3.8c-2.8,0-4.5-2.1-4.5-4.8c0-2.7,1.7-4.8,4.5-4.8c2,0,3.7,1.2,4,3.3H230.8z"/>
		<path class="st1" d="M234.9,46.2h2v3.5h3.7v-3.5h2v9.2h-2v-4h-3.7v4h-2V46.2z"/>
		<path class="st1" d="M245,46.2h6.9v1.7h-4.8v2h4.4v1.6h-4.4v2.3h4.9v1.7h-7V46.2z"/>
		<path class="st1" d="M256.3,50.6l-3-4.4h2.3l1.8,2.9l1.9-2.9h2.2l-2.9,4.4l3.2,4.8h-2.4l-2-3.2l-2,3.2h-2.3L256.3,50.6z"/>
		<path class="st1" d="M265.4,45.6c1.5,0,2.9,1.1,2.9,2.8c0,1.7-1.4,2.8-2.9,2.8c-1.5,0-2.9-1.1-2.9-2.8
			C262.5,46.7,263.8,45.6,265.4,45.6z M265.4,50.6c1.2,0,2.1-0.9,2.1-2.2c0-1.3-1-2.2-2.1-2.2c-1.2,0-2.1,0.9-2.1,2.2
			C263.2,49.7,264.2,50.6,265.4,50.6z M264.2,46.8h1.2c0.8,0,1.2,0.2,1.2,0.9c0,0.6-0.4,0.8-0.8,0.8l0.8,1.4H266l-0.8-1.3h-0.4V50
			h-0.6V46.8z M264.9,48.1h0.6c0.4,0,0.6-0.1,0.6-0.4c0-0.3-0.4-0.4-0.6-0.4h-0.5V48.1z"/>
		<path class="st1" d="M280,49.3c-0.1-0.9-1-1.6-2-1.6c-1.8,0-2.5,1.5-2.5,3.1c0,1.5,0.7,3.1,2.5,3.1c1.2,0,1.9-0.8,2.1-2.1h2
			c-0.2,2.3-1.8,3.8-4,3.8c-2.8,0-4.5-2.1-4.5-4.8c0-2.7,1.7-4.8,4.5-4.8c2,0,3.7,1.2,4,3.3H280z"/>
		<path class="st1" d="M287.5,46c2.8,0,4.5,2.1,4.5,4.8c0,2.6-1.7,4.8-4.5,4.8c-2.8,0-4.5-2.1-4.5-4.8C283,48.1,284.6,46,287.5,46z
			 M287.5,53.9c1.8,0,2.5-1.5,2.5-3.1c0-1.6-0.7-3.1-2.5-3.1s-2.5,1.5-2.5,3.1C285,52.3,285.7,53.9,287.5,53.9z"/>
		<path class="st1" d="M293.4,46.2h2.8l2.1,6.3h0l2-6.3h2.8v9.2h-1.9v-6.5h0l-2.2,6.5h-1.6l-2.2-6.4h0v6.4h-1.9V46.2z"/>
		<path class="st1" d="M305.7,46.2h4.1c2.3,0,3.2,1.5,3.2,2.9c0,1.5-0.9,2.9-3.2,2.9h-2.1v3.3h-2V46.2z M307.7,50.5h1.6
			c0.9,0,1.8-0.2,1.8-1.4c0-1.2-0.8-1.4-1.8-1.4h-1.6V50.5z"/>
		<path class="st1" d="M316.5,46.2h2.1l3.4,9.2h-2.1l-0.7-2h-3.4l-0.7,2h-2L316.5,46.2z M316.3,51.8h2.4l-1.2-3.4h0L316.3,51.8z"/>
		<path class="st1" d="M323.4,46.2h2l3.8,6.2h0v-6.2h1.9v9.2h-2l-3.8-6.1h0v6.1h-1.9V46.2z"/>
		<path class="st1" d="M336,51.8l-3.4-5.6h2.3l2.1,3.6l2.1-3.6h2.2l-3.4,5.7v3.5h-2V51.8z"/>
	</g>
</g>
</svg>
