<?xml version="1.0" encoding="utf-8"?>
<!-- Generator: Adobe Illustrator 22.1.0, SVG Export Plug-In . SVG Version: 6.00 Build 0)  -->
<svg version="1.1" id="Layer_1" xmlns="http://www.w3.org/2000/svg" xmlns:xlink="http://www.w3.org/1999/xlink" x="0px" y="0px"
	 viewBox="0 0 399.5 38" style="enable-background:new 0 0 399.5 38;" xml:space="preserve">
<style type="text/css">
	.st0{fill:#78A22F;}
	.st1{fill:#45525F;}
</style>
<g>
	<path class="st0" d="M62.7,24.5c0,0.8,0.1,1.6,0.4,2.2c0.7,2,3,2.4,4.9,2.4c1.7,0,4.3-0.6,4.3-3c0-1.7-1.4-2.2-7.2-3.8
		c-5.3-1.5-11.3-2.9-11.3-9.7c0-7.7,6.6-11,13.5-11c7.2,0,13.6,2.8,13.9,10.9h-9.7c0.2-1.3-0.4-2.1-1.2-2.7c-0.8-0.6-2-0.8-3-0.8
		c-1.4,0-3.7,0.4-3.7,2.2c0.2,2.4,4.9,2.9,9.7,4.2c4.7,1.3,9.4,3.5,9.4,9.6c0,8.7-8,11.5-15.4,11.5c-3.8,0-14.6-1.4-14.7-12H62.7z"
		/>
	<path class="st0" d="M114.6,22.8c0,9.2-5,13.7-15.2,13.7c-10.2,0-15.2-4.4-15.2-13.7V2.3h10.3v18.2c0,3.4,0,7.7,5,7.7
		c4.9,0,4.9-4.2,4.9-7.7V2.3h10.3V22.8z"/>
	<path class="st0" d="M118.1,2.3h19.6c5.8,0,10.9,3.2,10.9,9.5c0,3.5-1.6,7.1-5,8.4c2.8,1.1,4.5,4.2,4.9,8.3
		c0.1,1.6,0.2,5.6,1.1,7.1h-10.3c-0.5-1.7-0.7-3.4-0.8-5.1c-0.3-3.2-0.6-6.5-4.6-6.5h-5.5v11.6h-10.3V2.3z M128.4,16.9h5.4
		c1.9,0,4.5-0.3,4.5-3.3c0-2.1-1.2-3.3-5.1-3.3h-4.8V16.9z"/>
	<path class="st0" d="M151.9,2.3h27.6v8.5h-17.3V15h15.7V23h-15.7v4.2H180v8.5h-28.1V2.3z"/>
	<path class="st1" d="M184.8,2.3H202c9.1,0,12.2,6.6,12.2,11.4c0,8.1-5.4,11.9-13.1,11.9H195v10.1h-10.3V2.3z M195,17.6h4
		c2.7,0,5.5-0.2,5.5-3.5c0-3-2.3-3.2-4.9-3.2H195V17.6z"/>
	<path class="st1" d="M223.4,2.3h10l12.1,33.3H235l-1.4-4.8H223l-1.5,4.8h-10.3L223.4,2.3z M231.5,23.8l-3-10.3h-0.1l-3.2,10.3
		H231.5z"/>
	<path class="st1" d="M250.5,23.4L238.7,2.3h11.3l5.6,12.3l5.8-12.3h11.3l-12,21.1v12.3h-10.3V23.4z"/>
	<path class="st1" d="M274.7,2.3h19.6c5.8,0,10.9,3.2,10.9,9.5c0,3.5-1.6,7.1-5,8.4c2.8,1.1,4.5,4.2,4.9,8.3
		c0.1,1.6,0.2,5.6,1.1,7.1h-10.3c-0.5-1.7-0.7-3.4-0.8-5.1c-0.3-3.2-0.6-6.5-4.6-6.5H285v11.6h-10.3V2.3z M285,16.9h5.4
		c1.9,0,4.5-0.3,4.5-3.3c0-2.1-1.2-3.3-5.1-3.3H285V16.9z"/>
	<path class="st1" d="M324.4,1.5c10.1,0,16.9,7.3,16.9,17.5c0,10.2-6.8,17.5-16.9,17.5c-10.1,0-16.9-7.3-16.9-17.5
		C307.5,8.8,314.3,1.5,324.4,1.5z M324.4,28.2c2.6,0,6.6-1.7,6.6-9.2c0-7.4-4-9.2-6.6-9.2c-2.6,0-6.6,1.7-6.6,9.2
		C317.8,26.4,321.8,28.2,324.4,28.2z"/>
	<path class="st1" d="M344.1,2.3h10.3v24.8h14.8v8.5h-25V2.3z"/>
	<path class="st1" d="M372.7,2.3h10.3v24.8h14.8v8.5h-25V2.3z"/>
	<g>
		<polygon class="st1" points="17.3,35.7 35.1,35.7 35.1,14.5 		"/>
		<polygon class="st0" points="14,27.7 35.1,2.8 35.1,2.3 1.8,2.3 1.8,18.9 		"/>
		<polygon class="st1" points="1.8,28.3 1.8,35.7 12.1,35.7 		"/>
	</g>
</g>
</svg>
