<svg xmlns="http://www.w3.org/2000/svg" xmlns:xlink="http://www.w3.org/1999/xlink">
  
  <symbol id="twitter" viewBox="0 0 24 24">
    <path d="M22.46,6C21.69,6.35 20.86,6.58 20,6.69C20.88,6.16 21.56,5.32 21.88,4.31C21.05,4.81 20.13,5.16 19.16,5.36C18.37,4.5 17.26,4 16,4C13.65,4 11.73,5.92 11.73,8.29C11.73,8.63 11.77,8.96 11.84,9.27C8.28,9.09 5.11,7.38 3,4.79C2.63,5.42 2.42,6.16 2.42,6.94C2.42,8.43 3.17,9.75 4.33,10.5C3.62,10.5 2.96,10.3 2.38,10C2.38,10 2.38,10 2.38,10.03C2.38,12.11 3.86,13.85 5.82,14.24C5.46,14.34 5.08,14.39 4.69,14.39C4.42,14.39 4.15,14.36 3.89,14.31C4.43,16 6,17.26 7.89,17.29C6.43,18.45 4.58,19.13 2.56,19.13C2.22,19.13 1.88,19.11 1.54,19.07C3.44,20.29 5.7,21 8.12,21C16,21 20.33,14.46 20.33,8.79C20.33,8.6 20.33,8.42 20.32,8.23C21.16,7.63 21.88,6.87 22.46,6Z" />
  </symbol>
  <symbol id="facebook" viewBox="0 0 24 24">
    <path d="M5,3H19A2,2 0 0,1 21,5V19A2,2 0 0,1 19,21H5A2,2 0 0,1 3,19V5A2,2 0 0,1 5,3M18,5H15.5A3.5,3.5 0 0,0 12,8.5V11H10V14H12V21H15V14H18V11H15V9A1,1 0 0,1 16,8H18V5Z" />
  </symbol>
  <symbol id="linkedin" viewBox="0 0 24 24">
    <path d="M19,3A2,2 0 0,1 21,5V19A2,2 0 0,1 19,21H5A2,2 0 0,1 3,19V5A2,2 0 0,1 5,3H19M18.5,18.5V13.2A3.26,3.26 0 0,0 15.24,9.94C14.39,9.94 13.4,10.46 12.92,11.24V10.13H10.13V18.5H12.92V13.57C12.92,12.8 13.54,12.17 14.31,12.17A1.4,1.4 0 0,1 15.71,13.57V18.5H18.5M6.88,8.56A1.68,1.68 0 0,0 8.56,6.88C8.56,5.95 7.81,5.19 6.88,5.19A1.69,1.69 0 0,0 5.19,6.88C5.19,7.81 5.95,8.56 6.88,8.56M8.27,18.5V10.13H5.5V18.5H8.27Z"/>
  </symbol>
  <symbol id="youtube" viewBox="0 0 24 24">
    <path d="M10,15L15.19,12L10,9V15M21.56,7.17C21.69,7.64 21.78,8.27 21.84,9.07C21.91,9.87 21.94,10.56 21.94,11.16L22,12C22,14.19 21.84,15.8 21.56,16.83C21.31,17.73 20.73,18.31 19.83,18.56C19.36,18.69 18.5,18.78 17.18,18.84C15.88,18.91 14.69,18.94 13.59,18.94L12,19C7.81,19 5.2,18.84 4.17,18.56C3.27,18.31 2.69,17.73 2.44,16.83C2.31,16.36 2.22,15.73 2.16,14.93C2.09,14.13 2.06,13.44 2.06,12.84L2,12C2,9.81 2.16,8.2 2.44,7.17C2.69,6.27 3.27,5.69 4.17,5.44C4.64,5.31 5.5,5.22 6.82,5.16C8.12,5.09 9.31,5.06 10.41,5.06L12,5C16.19,5 18.8,5.16 19.83,5.44C20.73,5.69 21.31,6.27 21.56,7.17Z" />
  </symbol>
  <symbol id="stackoverflow" viewBox="0 0 24 24">
    <path d="M17.36,20.2V14.82H19.15V22H3V14.82H4.8V20.2H17.36M6.77,14.32L7.14,12.56L15.93,14.41L15.56,16.17L6.77,14.32M7.93,10.11L8.69,8.5L16.83,12.28L16.07,13.9L7.93,10.11M10.19,6.12L11.34,4.74L18.24,10.5L17.09,11.87L10.19,6.12M14.64,1.87L20,9.08L18.56,10.15L13.2,2.94L14.64,1.87M6.59,18.41V16.61H15.57V18.41H6.59Z" />
  </symbol>
  <symbol id="pluralsight" viewBox="0 0 24 24">
    <path transform="scale(0.9) translate(4,1.5)" d="M22,12L3,1V23M18,12L5,19V4.47" />
    <path transform="scale(0.75) translate(-1,4)" d="M22,12L3,1V23M18,12L5,19V4.47" />
  </symbol>
  <symbol id="github" viewBox="0 0 24 24">
    <path d="M12,2A10,10 0 0,0 2,12C2,16.42 4.87,20.17 8.84,21.5C9.34,21.58 9.5,21.27 9.5,21C9.5,20.77 9.5,20.14 9.5,19.31C6.73,19.91 6.14,17.97 6.14,17.97C5.68,16.81 5.03,16.5 5.03,16.5C4.12,15.88 5.1,15.9 5.1,15.9C6.1,15.97 6.63,16.93 6.63,16.93C7.5,18.45 8.97,18 9.54,17.76C9.63,17.11 9.89,16.67 10.17,16.42C7.95,16.17 5.62,15.31 5.62,11.5C5.62,10.39 6,9.5 6.65,8.79C6.55,8.54 6.2,7.5 6.75,6.15C6.75,6.15 7.59,5.88 9.5,7.17C10.29,6.95 11.15,6.84 12,6.84C12.85,6.84 13.71,6.95 14.5,7.17C16.41,5.88 17.25,6.15 17.25,6.15C17.8,7.5 17.45,8.54 17.35,8.79C18,9.5 18.38,10.39 18.38,11.5C18.38,15.32 16.04,16.16 13.81,16.41C14.17,16.72 14.5,17.33 14.5,18.26C14.5,19.6 14.5,20.68 14.5,21C14.5,21.27 14.66,21.59 15.17,21.5C19.14,20.16 22,16.42 22,12A10,10 0 0,0 12,2Z" />
  </symbol>
  <symbol id="email" viewBox="0 0 24 24">
    <path d="M22 6C22 4.9 21.1 4 20 4H4C2.9 4 2 4.9 2 6V18C2 19.1 2.9 20 4 20H20C21.1 20 22 19.1 22 18V6M20 6L12 11L4 6H20M20 18H4V8L12 13L20 8V18Z" />
  </symbol>

</svg>